<?xml version="1.0" encoding="UTF-8" standalone="no"?>
<!--
  SVG Music Logos
  Aerosmith v1.0.0
  https://github.com/tiagoporto/svg-music-logos
  Copyright (c) 2016-2018 Tiago Porto (http://tiagoporto.com)
-->

<svg
   viewBox="0 0 200 28"
   class="aerosmith"
   version="1.1"
   id="svg10"
   width="200"
   height="28"
   sodipodi:docname="logo.svg"
   inkscape:export-filename="logo.svg"
   inkscape:export-xdpi="1"
   inkscape:export-ydpi="1"
   inkscape:version="1.3.2 (091e20ef0f, 2023-11-25, custom)"
   xmlns:inkscape="http://www.inkscape.org/namespaces/inkscape"
   xmlns:sodipodi="http://sodipodi.sourceforge.net/DTD/sodipodi-0.dtd"
   xmlns="http://www.w3.org/2000/svg"
   xmlns:svg="http://www.w3.org/2000/svg">
  <sodipodi:namedview
     id="namedview1"
     pagecolor="#ffffff"
     bordercolor="#000000"
     borderopacity="0.25"
     inkscape:showpageshadow="2"
     inkscape:pageopacity="0.0"
     inkscape:pagecheckerboard="0"
     inkscape:deskcolor="#d1d1d1"
     inkscape:zoom="0.01"
     inkscape:cx="20000"
     inkscape:cy="2850"
     inkscape:window-width="1908"
     inkscape:window-height="1028"
     inkscape:window-x="0"
     inkscape:window-y="0"
     inkscape:window-maximized="1"
     inkscape:current-layer="svg10" />
  <defs
     id="defs10" />
  <path
     d="M 61.628,54.785 48.507,70.581 c 0,0 9.809,-3.567 17.961,-9.809 0.169,-1.101 0.43,-1.634 0.765,-2.038 0.928,-1.12 2.802,-2.802 2.802,-2.802 L 69.143,55.55 c 0,0 -9.808,9.299 -13.758,9.554 l 7.771,-8.917 c 0,-10e-4 -1.146,-0.51 -1.528,-1.402 z"
     id="path1"
     style="fill:#ffffff" />
  <path
     d="m 60.099,73.766 c 0,0 4.968,-1.402 12.356,-8.153 -0.873,0.068 -2.143,0.205 -2.802,-0.127 -0.724,0.611 -6.114,4.713 -6.114,4.713 0,0 3.167,-4.984 3.694,-5.86 -0.409,-0.478 -0.682,-1.027 -0.685,-1.828 z"
     id="path2"
     style="fill:#ffffff" />
  <path
     d="m 77.551,62.428 -1.784,1.274 -3.694,5.223 c 0,0 4.458,-1.274 9.554,-7.006 0,0 0.382,2.93 -2.42,6.369 0,0 4.204,-1.02 6.751,-5.86 l -3.312,-2.929 c 0,0 -4.968,5.35 -7.134,6.369 0.001,0 1.912,-2.293 2.039,-3.44 z"
     id="path3"
     style="fill:#ffffff" />
  <path
     d="m 83.665,61.537 -1.274,3.057 c 0,0 2.293,-1.655 2.42,-2.292 z"
     id="path4"
     style="fill:#ffffff" />
  <path
     d="m 113.855,62.683 c 0,0 2.802,5.095 5.732,5.605 0,0 -2.547,-3.949 -2.42,-6.624 0,0 5.605,7.006 9.682,7.643 0,0 -4.331,-6.241 -4.713,-8.662 l -1.911,-0.637 c 0,0 1.783,4.203 2.675,5.223 -1.73,-1.338 -3.972,-3.121 -5.375,-5.356 l -1.504,1.152 c 0,0 -0.509,1.019 0.382,3.44 l -1.656,-2.42 z"
     id="path5"
     style="fill:#ffffff" />
  <path
     d="m 123.537,61.027 12.993,10.7 -6.115,-12.102 c 0,0 16.433,10.828 19.617,11.21 L 138.695,56.059 c 0,0 -1.401,0.127 -1.528,1.019 l 7.261,8.917 -10.318,-6.752 c 0,0 -2.93,0 -3.949,-0.637 l -1.911,1.784 2.676,4.331 -4.204,-3.821 c -10e-4,0 -1.784,0.509 -3.185,0.127 z"
     id="path6"
     style="fill:#ffffff" />
  <path
     d="m 82.646,59.499 c 0,0 5.234,7.287 16.457,7.287 10.613,0.244 18.421,-7.198 18.421,-7.198 0,0 -4.636,-2.074 -8.662,0 -4.026,2.074 -9.149,5.49 -11.833,4.636 -3.05,-0.61 -2.318,-3.538 -2.318,-3.538 0,0 -6.831,-2.196 -6.831,-3.782 z"
     id="path7"
     style="fill:#ffffff" />
  <path
     d="m 136.631,53.628 c 0,0 -5.807,2.419 -3.097,-3.582 0,0 1.549,-2.418 2.904,-2.999 0,0 -0.678,-3.001 -1.839,-3.001 0,0 -0.484,0.291 -0.29,0.968 0,0 -0.29,3.871 -2.419,3.484 -1.355,-1.064 0.483,-4.064 1.548,-4.742 0,0 0.097,-2.419 -1.355,-1.936 0,0 0.581,2.807 -2.419,4.161 0,0 -0.387,12.097 -7.742,12.581 0,0 -3.58,-0.291 -5.032,-0.774 -1.452,-0.484 -10.355,-0.581 -16.452,3.387 0,0 -3.968,1.258 -3,-0.871 0,-0.871 1.065,-0.774 1.065,-0.774 0,0 1.257,-0.29 1.064,-1.161 -0.193,-0.871 -1.355,-2.129 -3.967,-2.903 0,0 2.516,-0.774 2.806,-1.742 0,0 0.29,1.645 0.872,1.645 0,0 -0.194,0.967 0.097,1.064 0.29,0.097 1.549,-0.677 2.032,-1.936 0,0 3.968,1.258 4.258,-2.903 0.387,-2.613 -2.419,-4.936 -2.419,-4.936 0,0 -2.033,-4.162 0.774,-4.549 2.806,-0.387 0.581,2.032 0.581,2.032 0,0 -0.775,1.258 0.774,1.839 1.065,-0.677 2.806,-1.645 2.806,-1.645 0,0 17.517,-10.258 21.871,-4.839 0,0 2.322,3.581 -2.613,3.194 0,0 -1.935,-3.097 -3.096,-3 -2.517,-1.161 -17.323,4.355 -18.678,7.935 0,0 0.291,0.291 0.678,0.097 0.387,-0.193 0.967,0.582 0.483,2.613 -0.483,2.032 -1.064,6.097 -4.838,4.839 0,0 -0.968,2.71 2.226,2.806 3.193,0.097 4.258,-9.774 4.258,-9.774 l 0.484,-0.291 0.774,8.419 0.387,-0.096 c 0,0 3.097,-6.097 3.581,-5.71 0.483,0.387 1.258,3 -0.968,5.129 0,0 -0.194,0.677 0.677,0.677 0.871,0 1.936,0 2.226,-1.548 0.291,-1.549 -0.483,-5.71 -0.097,-6.484 0.387,-0.774 1.162,-1.645 0.968,-2.129 -0.193,-0.484 -1.258,-0.387 -1.451,-1.161 0,0 -0.775,-0.097 -0.775,0.484 0,0.581 -1.839,5.516 -3.193,4.839 -1.355,-0.678 0.194,-5.323 1.742,-6.097 1.548,-0.774 8.13,-4.355 8.904,-2.806 0.774,1.548 2.032,9.097 -1.065,14.71 0,0 -0.291,0.774 0.87,0.774 1.162,0 2.614,-0.29 2.711,-1.742 0.097,-1.451 -0.387,-10.548 2.419,-10.355 0,0 2.902,2.032 4.257,-0.774 1.355,-2.806 0.58,-5.806 -3.194,-6.774 -3.774,-0.968 -13.355,2.323 -20.807,6.677 0,0 -0.677,-0.193 -0.387,-0.871 0.29,-0.677 0.871,-3.097 -2.323,-2.516 0,0 -1.452,0 -2.032,1.355 0,0 -0.484,-0.193 -0.484,-1.064 0,0 -0.484,-1.742 -4.065,1.161 -2.128,2.419 -1.839,0.193 -1.839,0.193 0,0 -2.612,-0.871 -4.935,4.936 0,0 -1.839,5.323 1.161,6.968 3.581,1.161 7.258,-2.807 7.452,-7.743 0,0 -0.097,-3.291 -2.42,-1.839 0,0 -0.774,0.678 -0.096,1.356 0.387,0.193 0.677,-0.194 0.677,-0.194 0,0 1.065,4.839 -3.096,6.774 0,0 -2.71,0.775 -2.129,-3.096 0.484,-4.452 2.322,-5.71 3,-5.71 0,0 0,1.161 0.58,0.871 0.582,-0.29 3.388,-3.774 4.452,-2.71 0,0 1.161,-0.193 0.774,0.968 0,0 -1.645,1.935 -0.193,3.871 1.936,1.839 4.742,5.323 1.646,6.484 0,0 -1.258,0.29 -1.258,-1.065 0,-1.355 -0.194,-1.742 -0.581,-1.645 0,0 -0.096,-1.065 0.581,-1.162 0.677,-0.097 0,-1.839 -0.872,-1.936 0,0 -0.677,7.355 -7.065,7.646 -6.386,0.29 -5.709,-4.936 -5.709,-4.936 0,0 1.839,0 2.226,-1.161 0.386,-1.161 1.063,-4.742 -4.839,-7.064 0,0 -13.936,-3.29 -16.548,5.42 0,0 -3.678,2.612 -4.742,0.581 -0.097,-2.806 2.322,-4.451 3,-3.871 0,0 0.677,1.258 1.838,0.484 1.162,-0.774 9.678,-6.774 12.871,-4.742 0,0 1.548,2.613 3.677,0.871 0.387,-5.71 -11.226,-1.839 -15.484,2.322 0,0 -0.868,0.484 -0.869,0 0,0 -0.968,-0.193 -0.097,-1.355 0,0 -4.161,-1.258 -6.678,3.387 -1.645,4.645 1.355,6.581 3.194,5.807 1.258,-0.484 2.322,-1.936 2.322,-1.936 0,0 0.774,0 0.387,0.774 -0.387,0.774 -2.516,5.226 -3.871,2.807 0,0 -1.451,0.193 -1.355,2.032 0.097,1.839 3.677,4.259 7.065,-5.129 0,0 1.839,0.194 0.291,3.871 0,0 -1.355,1.839 0.096,2.129 1.257,0.251 1.799,0.105 1.922,0.061 -1.227,0.433 -4.454,2.383 -5.011,5.674 -0.497,2.937 4.091,4.945 6.961,3.168 2.032,-1.258 14.613,-11.516 20.807,-7.935 0,0 2.806,1.065 1.355,3 0,0 -2.419,2.516 0.193,3.871 2.613,1.355 12,-4.161 12,-4.161 0,0 4.162,-2.613 13.162,0.581 0,0 6.29,1.646 7.742,-1.258 0,0 -0.29,-8.71 2.226,-8.517 2.516,0.194 -0.194,3.484 -0.194,3.484 0,0 -1.065,2.419 0.58,3.291 1.645,0.871 3.387,-1.065 3.387,-1.065 0,0 1.161,0.097 0.097,1.258 -1.065,1.162 -3.775,1.937 -5.419,0.484 0,0 2.226,2.516 5.516,0.677 2.901,-2.514 2.417,-4.739 1.062,-4.256 z M 78.37,41.821 c 5.129,0.29 5.419,0.871 5.516,2.613 0.097,1.742 -1.121,11.869 -4.734,11.164 -3.613,-0.705 -6.133,-0.492 -6.133,-0.492 0,0 0.814,-2.162 3.318,-1.576 2.231,0.522 3.038,0.452 3.581,-0.387 1.065,-1.645 0.968,-2.71 2.42,-2.613 0.097,-0.774 0,-1.162 0.387,-1.549 0.193,-0.097 0.484,-2.129 -0.097,-2.032 0,0 -1.451,0.483 -3.387,4.161 -1.936,2.419 -3,0.484 -3,0.484 0,0 -0.097,-4.161 2.709,-4.355 0,0 0.096,1.162 1.065,0.775 0.967,-0.388 0.29,-2.71 -1.162,-2.033 -1.451,0.677 -2.225,1.936 -2.225,1.936 0,0 -0.193,-3.967 3.194,-4.355 0,0 1.548,-0.096 1.354,1.355 0,0 0,0.967 1.162,0.677 2.129,-4.065 -5.226,-3.387 -6.387,-1.258 0,0 -1.452,9.484 -2.807,9 -1.354,-0.482 0.098,-11.805 5.226,-11.515 z m -6.639,8.253 c -0.186,-1.108 -0.48,-1.833 -1.296,-2.349 0.774,-2.322 2.807,-2.709 2.807,-2.709 -0.969,0.967 -1.511,5.058 -1.511,5.058 z m 7.869,8.694 c -5.655,3.622 -8.92,4.005 -8.963,0.954 -0.034,-2.387 1.324,-3.772 8.515,-2.818 2.949,0.391 5.6,-1.168 5.6,-5.646 0,-2.267 -0.201,-3.813 -0.092,-4.985 0.179,-1.915 0.623,-2.812 2.419,-1.839 2.322,1.258 1.936,3.871 -0.097,3.775 0,0 -0.967,0.193 -0.967,-0.387 0,0 -0.581,-0.387 -0.581,0.097 0,0.484 -0.29,6 4.549,6.968 10e-4,-10e-4 -4.681,0.23 -10.383,3.881 z"
     id="path8"
     style="fill:#ffffff" />
  <path
     d="m 118.134,46.739 c 0,0 -1.057,-0.732 -0.569,-1.302 0.488,-0.569 3.253,-1.463 3.416,-1.87 0.163,-0.407 0.732,1.138 0.244,1.788 -0.487,0.651 -2.115,9.923 -1.707,11.061 0,0 -2.033,0.569 -3.09,-0.894 -0.002,0 3.251,-4.88 1.706,-8.783 z"
     id="path9"
     style="fill:#ffffff" />
  <path
     d="m 135.752,3.547 c -13.985,-2.893 -22.175,6.649 -23.773,8.73 -3.836,-2.238 -7.935,-3.455 -11.645,-3.455 -4.321,0 -9.175,0.953 -13.604,3.569 C 83.154,7.908 74.772,0.36 60.843,4.265 41.577,9.667 17.269,13.088 2.506,5.526 c 0,0 6.843,11.343 40.333,15.484 0,0 -15.305,0.721 -34.211,-4.321 0,0 11.343,9.183 33.31,10.803 0,0 -21.066,-1.26 -21.426,-0.36 -0.36,0.9 21.786,8.462 33.31,6.662 0,0 -3.421,2.161 -22.867,1.08 0,0 11.344,8.463 31.329,6.482 0,0 -13.323,3.241 -18.005,2.701 0,0 4.681,1.98 12.784,2.7 0,0 -11.703,14.945 -10.803,21.427 0,0 6.122,-10.983 17.105,-16.025 l 0.72,-0.54 -1.981,-0.9 c 0,0 -7.022,3.781 -11.703,9.003 0,0 7.022,-12.244 9.363,-13.144 l 1.441,-0.18 0.18,-1.26 c 0,0 -9.543,-0.18 -9.903,-0.9 0,0 11.163,0.36 12.963,-3.241 0,0 6.329,-0.31 8.263,-1.501 0.008,0.091 0.013,0.147 0.013,0.147 1.861,-1.595 5.051,-2.127 5.051,-2.127 0,0 0.614,-12.335 8.744,-19.148 1.923,2.754 7.43,12.294 0.616,23.349 0,0 3.24,1.981 3.6,3.601 0,0 1.621,-3.42 3.241,-3.781 0,0 0.9,-7.563 6.661,-6.843 4.142,0.54 3.962,5.222 3.962,5.222 0,0 3.241,-0.9 2.88,2.521 l 3.241,-1.441 c 0,0 -6.273,-13.504 1.643,-22.506 8.532,6.681 9.274,18.227 9.274,18.227 0.798,-0.532 4.918,-0.664 4.918,-0.664 -0.07,-1.64 -0.281,-3.221 -0.606,-4.742 4.195,1.681 15.567,2.305 15.567,2.305 6.121,3.781 19.446,2.701 19.446,2.701 -12.244,6.121 -29.708,2.341 -29.708,2.341 l 1.26,2.161 1.44,0.36 c 1.981,2.521 10.443,3.241 10.443,3.241 -1.801,0.72 -8.102,0.18 -8.102,0.18 l 0.9,1.8 h 2.521 c 6.121,6.482 8.642,13.685 8.642,13.685 -0.36,-1.8 -10.263,-9.003 -12.423,-10.263 -2.161,-1.261 -2.701,3.061 -2.701,3.061 1.62,1.26 2.701,0 2.701,0 -0.9,-0.54 -0.36,-1.261 -0.36,-1.261 10.082,3.962 16.925,16.205 16.925,16.205 0.541,-7.202 -11.344,-21.607 -11.344,-21.607 8.462,-0.54 12.963,-2.521 12.963,-2.521 -12.784,-0.18 -17.644,-2.521 -17.644,-2.521 20.886,1.98 32.049,-6.842 32.049,-6.842 -19.086,2.521 -24.127,-0.72 -24.127,-0.72 17.825,1.081 33.669,-7.023 33.669,-7.023 -2.521,0.541 -21.426,0.36 -21.426,0.36 25.027,-1.62 32.41,-10.803 32.41,-10.803 -13.864,5.761 -34.21,4.501 -34.21,4.501 21.606,-0.72 37.991,-12.064 39.611,-13.324 1.621,-1.261 1.8,-2.521 1.8,-2.521 -22.144,9.544 -43.571,2.702 -60.496,-1.259 z m -54.379,8.642 0.793,0.745 c -0.449,-0.008 -0.915,-0.015 -0.967,-0.011 l -6.027,-2.526 2.874,-0.67 c 1.196,0.651 2.32,1.455 3.327,2.462 z M 75.588,8.633 C 73.921,8.99 65.59,10.591 57.68,8.766 c 0,0 -0.016,-0.02 -0.04,-0.049 4.193,-1.04 11.668,-2.285 17.948,-0.084 z M 54.365,9.669 c 0,0 0.06,-0.021 0.154,-0.053 1.461,0.313 12.983,2.704 16.602,0.986 l 6.348,2.591 c -9.459,0.631 -33.558,1.9 -42.73,-0.822 0.001,-0.002 14.945,-0.362 19.626,-2.702 z M 72.648,38.08 c -3.308,0.739 -19.521,3.9 -34.311,-1.405 0,0 14.945,1.62 18.726,-3.061 0,0 7.614,0.528 16.169,-1.921 -0.514,2.689 -0.601,4.969 -0.584,6.387 z m 1.014,-8.316 c -3.486,0.749 -24.822,4.904 -43.608,-1.192 0,0 19.626,1.44 24.308,-1.081 0,0 16.295,-0.672 20.812,-2.179 -0.657,1.525 -1.147,3.026 -1.512,4.452 z m 2.216,-5.95 c -5.569,0.684 -39.188,4.387 -56.987,-3.524 0,0 24.67,4.681 34.393,1.801 0,0 19.806,-1.441 22.147,-2.521 l 2.102,1.401 c -0.629,0.94 -1.176,1.891 -1.655,2.843 z m 2.364,-3.854 -1.551,-0.931 h 2.269 c -0.249,0.308 -0.487,0.619 -0.718,0.931 z m 1.814,-2.188 c -0.8,0.015 -3.519,0.108 -5.345,0.717 -2.161,0.721 -34.929,5.404 -61.578,-7.742 0,0 8.464,1.622 15.306,1.622 0,0 14.405,4.501 43.393,2.521 l 8.516,2.571 c -0.099,0.103 -0.196,0.207 -0.292,0.311 z m 1.198,-1.213 -5.462,-2.029 c 0,0 5.812,-0.531 7.792,-0.264 l 0.163,0.198 c -0.903,0.668 -1.729,1.37 -2.493,2.095 z m 77.725,-4.729 c 0,0 -20.526,3.241 -37.091,0.72 0,0 7.923,-1.621 8.283,-2.701 0,0 7.022,0.72 12.064,-0.901 -0.001,10e-4 7.021,2.162 16.744,2.882 z M 137.373,8.049 c 0,0 -7.562,0.9 -11.523,-0.179 0,-0.001 7.022,-1.622 11.523,0.179 z m -16.025,1.08 3.961,0.18 c 0,0 -1.261,1.441 -7.382,2.161 z m 1.8,5.762 -5.715,1.469 c -0.849,-0.8 -1.736,-1.539 -2.648,-2.221 2.242,-0.819 8.363,0.752 8.363,0.752 z m -29.535,8.46 c 0,0 -2.076,-4.853 -3.827,-7.162 0.354,-0.184 0.717,-0.36 1.093,-0.524 0.344,1.917 1.749,4.552 3.816,5.346 z m 0.16,-8.683 c 1.99,-0.513 4.215,-0.773 6.728,-0.68 1.492,0.14 2.866,0.399 4.155,0.738 -1.019,2.306 -2.39,4.538 -5.442,4.539 -1.668,10e-4 -4.783,-1.309 -5.441,-4.597 z m 7.695,14.384 0.43,2.472 -2.252,-1.167 -2.253,1.167 0.431,-2.472 -1.824,-1.751 2.519,-0.36 1.127,-2.249 1.126,2.249 2.519,0.36 z m 4.029,-5.341 -1.26,-3.241 c 0,0 2.184,-1.308 2.983,-4.918 0.606,0.239 1.18,0.505 1.736,0.785 -1.128,1.699 -2.824,5.307 -3.459,7.374 z m 14.412,-4.72 2.159,0.222 -1.535,0.558 c -0.205,-0.264 -0.411,-0.526 -0.624,-0.78 z m 51.674,8.864 c -17.894,7.456 -42.324,2.414 -46.114,1.561 -0.427,-1.481 -0.964,-2.897 -1.602,-4.243 9.241,3.166 47.716,2.682 47.716,2.682 z m 11.524,-9.003 c -26.501,11.702 -57.75,4.659 -60.467,4.012 -0.422,-0.713 -0.87,-1.403 -1.344,-2.068 l 0.051,0.037 2.062,-1.269 c 8.103,3.061 28.728,1.809 28.728,1.809 5.942,3.241 30.97,-2.521 30.97,-2.521 z M 118.942,17.89 c -0.121,-0.131 -0.243,-0.26 -0.366,-0.389 3.31,-0.491 8.713,-2.97 8.713,-2.97 20.706,2.161 42.493,-2.341 42.493,-2.341 7.562,0.719 18.546,-3.241 18.546,-3.241 -20.151,15.281 -63.619,9.755 -69.386,8.941 z"
     id="path10"
     style="fill:#ffffff" />
</svg>
